STARTFONT 2.3
FONT -FontForge-Henny Penny-Book-R-Normal--8-80-72-72-P-45-ISO10646-1
SIZE 8 72 72  2
FONTBOUNDINGBOX 11 14 -1 -5
COMMENT "Generated by fontforge, http://fontforge.sourceforge.net"
COMMENT "Copyright (c) 2012, Brownfox (gayaneh.b@gmail.com), with Reserved Font Name "Henny Penny""
STARTPROPERTIES 40
FOUNDRY "FontForge"
FAMILY_NAME "Henny Penny"
WEIGHT_NAME "Book"
SLANT "R"
SETWIDTH_NAME "Normal"
ADD_STYLE_NAME ""
PIXEL_SIZE 8
POINT_SIZE 80
RESOLUTION_X 72
RESOLUTION_Y 72
SPACING "P"
AVERAGE_WIDTH 45
CHARSET_REGISTRY "ISO10646"
CHARSET_ENCODING "1"
FONTNAME_REGISTRY ""
CHARSET_COLLECTIONS "ISO10646-1"
BITS_PER_PIXEL 2
FONT_NAME "HennyPenny-Regular"
FACE_NAME "Henny Penny"
COPYRIGHT "Copyright (c) 2012, Brownfox (gayaneh.b@gmail.com), with Reserved Font Name "Henny Penny""
FONT_VERSION "1.001"
FONT_ASCENT 6
FONT_DESCENT 2
UNDERLINE_POSITION -1
UNDERLINE_THICKNESS 1
X_HEIGHT 4
CAP_HEIGHT 6
RAW_ASCENT 799
RAW_DESCENT 200
NORM_SPACE 2
RELATIVE_WEIGHT 40
RELATIVE_SETWIDTH 50
SUPERSCRIPT_X 0
SUPERSCRIPT_Y 2
SUPERSCRIPT_SIZE 4
SUBSCRIPT_X 0
SUBSCRIPT_Y 0
SUBSCRIPT_SIZE 4
AVG_LOWERCASE_WIDTH 40
AVG_UPPERCASE_WIDTH 57
ENDPROPERTIES
CHARS 233
STARTCHAR space
ENCODING 32
SWIDTH 270 0
DWIDTH 2 0
BBX 1 1 0 0
BITMAP
00
ENDCHAR
STARTCHAR exclam
ENCODING 33
SWIDTH 249 0
DWIDTH 2 0
BBX 2 8 0 0
BITMAP
90
60
50
50
10
00
00
50
ENDCHAR
STARTCHAR quotedbl
ENCODING 34
SWIDTH 292 0
DWIDTH 2 0
BBX 2 3 0 4
BITMAP
50
50
50
ENDCHAR
STARTCHAR numbersign
ENCODING 35
SWIDTH 1030 0
DWIDTH 8 0
BBX 7 8 1 -2
BITMAP
0100
0440
5A54
1500
6900
1400
5000
1000
ENDCHAR
STARTCHAR dollar
ENCODING 36
SWIDTH 799 0
DWIDTH 6 0
BBX 5 8 1 -2
BITMAP
2F40
3500
2800
0E00
4700
9300
7D00
1000
ENDCHAR
STARTCHAR percent
ENCODING 37
SWIDTH 789 0
DWIDTH 6 0
BBX 6 7 0 0
BITMAP
7810
9840
7900
0400
05E0
1220
42E0
ENDCHAR
STARTCHAR ampersand
ENCODING 38
SWIDTH 773 0
DWIDTH 6 0
BBX 6 8 0 -1
BITMAP
1D00
2100
2800
3490
9850
A640
7F90
0090
ENDCHAR
STARTCHAR quotesingle
ENCODING 39
SWIDTH 174 0
DWIDTH 1 0
BBX 1 3 0 3
BITMAP
40
40
40
ENDCHAR
STARTCHAR parenleft
ENCODING 40
SWIDTH 431 0
DWIDTH 3 0
BBX 3 11 0 -3
BITMAP
10
10
40
80
80
C0
80
90
20
24
08
ENDCHAR
STARTCHAR parenright
ENCODING 41
SWIDTH 443 0
DWIDTH 4 0
BBX 4 8 0 -2
BITMAP
20
18
09
05
05
08
14
50
ENDCHAR
STARTCHAR asterisk
ENCODING 42
SWIDTH 490 0
DWIDTH 4 0
BBX 4 3 0 4
BITMAP
15
58
15
ENDCHAR
STARTCHAR plus
ENCODING 43
SWIDTH 440 0
DWIDTH 4 0
BBX 3 4 0 0
BITMAP
10
BC
00
04
ENDCHAR
STARTCHAR comma
ENCODING 44
SWIDTH 251 0
DWIDTH 2 0
BBX 2 2 0 -1
BITMAP
A0
60
ENDCHAR
STARTCHAR hyphen
ENCODING 45
SWIDTH 436 0
DWIDTH 3 0
BBX 3 1 0 2
BITMAP
7C
ENDCHAR
STARTCHAR period
ENCODING 46
SWIDTH 238 0
DWIDTH 2 0
BBX 2 1 0 0
BITMAP
50
ENDCHAR
STARTCHAR slash
ENCODING 47
SWIDTH 690 0
DWIDTH 6 0
BBX 5 7 0 0
BITMAP
0040
0040
0100
0400
1000
1000
4000
ENDCHAR
STARTCHAR zero
ENCODING 48
SWIDTH 723 0
DWIDTH 6 0
BBX 6 6 0 1
BITMAP
2F40
A090
C060
C060
A090
2F40
ENDCHAR
STARTCHAR one
ENCODING 49
SWIDTH 505 0
DWIDTH 4 0
BBX 4 8 0 -1
BITMAP
10
74
A4
18
0C
0C
2F
50
ENDCHAR
STARTCHAR two
ENCODING 50
SWIDTH 534 0
DWIDTH 4 0
BBX 4 7 0 -1
BITMAP
7D
4A
45
08
10
64
0A
ENDCHAR
STARTCHAR three
ENCODING 51
SWIDTH 511 0
DWIDTH 4 0
BBX 4 6 0 -1
BITMAP
BC
40
09
43
83
7D
ENDCHAR
STARTCHAR four
ENCODING 52
SWIDTH 712 0
DWIDTH 6 0
BBX 6 8 0 -1
BITMAP
0500
0900
1600
9200
1B40
0280
07D0
0010
ENDCHAR
STARTCHAR five
ENCODING 53
SWIDTH 757 0
DWIDTH 6 0
BBX 6 7 0 -1
BITMAP
0250
0490
0500
4180
41C0
8280
7E00
ENDCHAR
STARTCHAR six
ENCODING 54
SWIDTH 598 0
DWIDTH 5 0
BBX 5 6 0 0
BITMAP
2E00
A040
AE00
D180
9180
2E00
ENDCHAR
STARTCHAR seven
ENCODING 55
SWIDTH 507 0
DWIDTH 4 0
BBX 4 7 0 0
BITMAP
01
FE
44
04
04
20
30
ENDCHAR
STARTCHAR eight
ENCODING 56
SWIDTH 476 0
DWIDTH 4 0
BBX 4 7 0 0
BITMAP
7C
A1
74
2D
42
82
7D
ENDCHAR
STARTCHAR nine
ENCODING 57
SWIDTH 601 0
DWIDTH 5 0
BBX 5 6 0 0
BITMAP
7E00
9240
9280
7F80
0240
7D00
ENDCHAR
STARTCHAR colon
ENCODING 58
SWIDTH 246 0
DWIDTH 2 0
BBX 2 4 0 0
BITMAP
50
00
00
50
ENDCHAR
STARTCHAR semicolon
ENCODING 59
SWIDTH 266 0
DWIDTH 2 0
BBX 2 5 0 -1
BITMAP
60
00
00
60
50
ENDCHAR
STARTCHAR less
ENCODING 60
SWIDTH 522 0
DWIDTH 4 0
BBX 4 4 0 0
BITMAP
04
50
14
01
ENDCHAR
STARTCHAR equal
ENCODING 61
SWIDTH 655 0
DWIDTH 5 0
BBX 5 2 0 2
BITMAP
0A80
BE40
ENDCHAR
STARTCHAR greater
ENCODING 62
SWIDTH 533 0
DWIDTH 4 0
BBX 3 4 1 0
BITMAP
50
04
10
40
ENDCHAR
STARTCHAR question
ENCODING 63
SWIDTH 564 0
DWIDTH 5 0
BBX 5 8 0 -1
BITMAP
7E00
9340
A300
0900
1000
3000
0000
2000
ENDCHAR
STARTCHAR at
ENCODING 64
SWIDTH 898 0
DWIDTH 7 0
BBX 7 8 0 -2
BITMAP
0BE0
2414
5BD4
5884
5894
4F74
2180
1F40
ENDCHAR
STARTCHAR A
ENCODING 65
SWIDTH 784 0
DWIDTH 6 0
BBX 7 7 0 0
BITMAP
2E00
0700
0640
1A80
26C0
E0A0
11F4
ENDCHAR
STARTCHAR B
ENCODING 66
SWIDTH 685 0
DWIDTH 5 0
BBX 6 8 0 -1
BITMAP
6F40
2180
2100
2F80
2490
2490
3F80
4000
ENDCHAR
STARTCHAR C
ENCODING 67
SWIDTH 742 0
DWIDTH 6 0
BBX 6 7 0 -1
BITMAP
0010
2FD0
A050
D000
D010
B450
2F80
ENDCHAR
STARTCHAR D
ENCODING 68
SWIDTH 726 0
DWIDTH 6 0
BBX 6 7 0 -2
BITMAP
AF80
30A0
2060
2490
3F40
A000
4000
ENDCHAR
STARTCHAR E
ENCODING 69
SWIDTH 557 0
DWIDTH 4 0
BBX 5 8 0 -2
BITMAP
5A00
6000
3000
3C00
2400
2040
BF40
0100
ENDCHAR
STARTCHAR F
ENCODING 70
SWIDTH 533 0
DWIDTH 4 0
BBX 5 7 0 0
BITMAP
5A40
B140
3500
2C00
2400
2400
A800
ENDCHAR
STARTCHAR G
ENCODING 71
SWIDTH 750 0
DWIDTH 6 0
BBX 6 6 0 0
BITMAP
0010
2E10
A090
D050
A3D0
6F90
ENDCHAR
STARTCHAR H
ENCODING 72
SWIDTH 743 0
DWIDTH 6 0
BBX 6 8 0 -1
BITMAP
3D10
32E0
3090
3080
3FC0
3080
32E0
B400
ENDCHAR
STARTCHAR I
ENCODING 73
SWIDTH 438 0
DWIDTH 4 0
BBX 5 9 -1 -2
BITMAP
3FC0
0D00
0C00
0800
0800
0800
0800
2E00
5000
ENDCHAR
STARTCHAR J
ENCODING 74
SWIDTH 628 0
DWIDTH 5 0
BBX 6 10 0 -2
BITMAP
0050
0F80
0300
0300
0200
0200
0200
0600
A900
B400
ENDCHAR
STARTCHAR K
ENCODING 75
SWIDTH 866 0
DWIDTH 7 0
BBX 7 9 0 -1
BITMAP
0500
F5E0
3140
3500
3D00
2700
2284
78B8
0400
ENDCHAR
STARTCHAR L
ENCODING 76
SWIDTH 660 0
DWIDTH 5 0
BBX 5 5 0 0
BITMAP
BE00
2800
2400
2440
BFC0
ENDCHAR
STARTCHAR M
ENCODING 77
SWIDTH 1089 0
DWIDTH 9 0
BBX 9 7 0 -1
BITMAP
000740
190900
064900
04C500
004300
0407C0
800400
ENDCHAR
STARTCHAR N
ENCODING 78
SWIDTH 799 0
DWIDTH 6 0
BBX 7 7 0 -2
BITMAP
F8F4
2E10
1B90
12D0
1090
1000
F400
ENDCHAR
STARTCHAR O
ENCODING 79
SWIDTH 747 0
DWIDTH 6 0
BBX 6 6 0 0
BITMAP
2F80
A1E0
C070
C070
A0A0
2F80
ENDCHAR
STARTCHAR P
ENCODING 80
SWIDTH 623 0
DWIDTH 5 0
BBX 5 7 0 -1
BITMAP
FF80
24C0
1F40
1400
2400
2400
7900
ENDCHAR
STARTCHAR Q
ENCODING 81
SWIDTH 804 0
DWIDTH 6 0
BBX 9 11 0 -4
BITMAP
1F8000
60A000
803400
C02400
92E000
756000
2FB000
002400
002800
001C40
000B80
ENDCHAR
STARTCHAR R
ENCODING 82
SWIDTH 869 0
DWIDTH 7 0
BBX 7 6 0 0
BITMAP
FF40
3580
2F80
2700
2680
B8B8
ENDCHAR
STARTCHAR S
ENCODING 83
SWIDTH 517 0
DWIDTH 4 0
BBX 4 7 0 -1
BITMAP
2D
21
14
05
42
93
5E
ENDCHAR
STARTCHAR T
ENCODING 84
SWIDTH 659 0
DWIDTH 5 0
BBX 6 8 0 -1
BITMAP
BFD0
4610
4600
0600
0600
0600
0FC0
1400
ENDCHAR
STARTCHAR U
ENCODING 85
SWIDTH 690 0
DWIDTH 6 0
BBX 6 6 0 0
BITMAP
1900
FBF0
3080
3040
3840
1F40
ENDCHAR
STARTCHAR V
ENCODING 86
SWIDTH 798 0
DWIDTH 6 0
BBX 7 7 0 0
BITMAP
0500
FD18
18B4
0910
0740
0380
0140
ENDCHAR
STARTCHAR W
ENCODING 87
SWIDTH 1120 0
DWIDTH 9 0
BBX 10 7 0 -1
BITMAP
000100
1002F0
704080
258100
196100
0C3800
001400
ENDCHAR
STARTCHAR X
ENCODING 88
SWIDTH 868 0
DWIDTH 7 0
BBX 7 8 0 -1
BITMAP
0100
FD00
1D24
0390
0280
0450
B9F4
0400
ENDCHAR
STARTCHAR Y
ENCODING 89
SWIDTH 796 0
DWIDTH 6 0
BBX 7 9 0 -2
BITMAP
0410
F83C
2810
0B40
0300
0200
0300
0F80
0040
ENDCHAR
STARTCHAR Z
ENCODING 90
SWIDTH 627 0
DWIDTH 5 0
BBX 5 7 0 -1
BITMAP
BE00
4900
0800
1440
2080
3BC0
1400
ENDCHAR
STARTCHAR bracketleft
ENCODING 91
SWIDTH 344 0
DWIDTH 3 0
BBX 3 9 0 -2
BITMAP
64
50
90
80
80
80
C0
C0
B4
ENDCHAR
STARTCHAR backslash
ENCODING 92
SWIDTH 347 0
DWIDTH 3 0
BBX 3 8 0 -1
BITMAP
40
40
10
10
10
10
04
04
ENDCHAR
STARTCHAR bracketright
ENCODING 93
SWIDTH 334 0
DWIDTH 3 0
BBX 3 7 0 -2
BITMAP
70
24
24
24
28
24
40
ENDCHAR
STARTCHAR asciicircum
ENCODING 94
SWIDTH 658 0
DWIDTH 5 0
BBX 5 2 0 4
BITMAP
1D00
A680
ENDCHAR
STARTCHAR underscore
ENCODING 95
SWIDTH 678 0
DWIDTH 5 0
BBX 4 1 1 -2
BITMAP
6F
ENDCHAR
STARTCHAR grave
ENCODING 96
SWIDTH 278 0
DWIDTH 2 0
BBX 2 2 0 6
BITMAP
50
10
ENDCHAR
STARTCHAR a
ENCODING 97
SWIDTH 527 0
DWIDTH 4 0
BBX 5 6 0 -1
BITMAP
7800
5800
0900
BE00
BA00
0340
ENDCHAR
STARTCHAR b
ENCODING 98
SWIDTH 582 0
DWIDTH 5 0
BBX 6 10 -1 -1
BITMAP
1400
B400
2400
1400
1400
1BC0
1890
1890
1F80
2400
ENDCHAR
STARTCHAR c
ENCODING 99
SWIDTH 437 0
DWIDTH 4 0
BBX 4 4 0 1
BITMAP
7C
8C
81
7C
ENDCHAR
STARTCHAR d
ENCODING 100
SWIDTH 523 0
DWIDTH 4 0
BBX 5 8 0 0
BITMAP
0E00
0600
0600
0600
0600
7E00
D600
7F40
ENDCHAR
STARTCHAR e
ENCODING 101
SWIDTH 434 0
DWIDTH 3 0
BBX 4 4 0 0
BITMAP
7D
BC
91
7C
ENDCHAR
STARTCHAR f
ENCODING 102
SWIDTH 299 0
DWIDTH 2 0
BBX 5 11 -1 -2
BITMAP
0740
0880
0A40
1800
7D00
1800
1800
1800
1800
2E00
1000
ENDCHAR
STARTCHAR g
ENCODING 103
SWIDTH 567 0
DWIDTH 5 0
BBX 5 8 0 -3
BITMAP
0380
7D00
9600
7D00
3E00
9240
D200
BD00
ENDCHAR
STARTCHAR h
ENCODING 104
SWIDTH 566 0
DWIDTH 5 0
BBX 6 8 -1 0
BITMAP
3800
0800
0800
0800
0B80
18C0
14C0
7ED0
ENDCHAR
STARTCHAR i
ENCODING 105
SWIDTH 301 0
DWIDTH 2 0
BBX 3 6 0 1
BITMAP
20
00
E0
60
60
B4
ENDCHAR
STARTCHAR j
ENCODING 106
SWIDTH 367 0
DWIDTH 3 0
BBX 4 9 -1 -4
BITMAP
08
2E
0A
02
02
02
A2
89
78
ENDCHAR
STARTCHAR k
ENCODING 107
SWIDTH 567 0
DWIDTH 5 0
BBX 6 9 -1 -1
BITMAP
B400
1400
0400
0900
0AC0
0A00
0A10
09D0
2B00
ENDCHAR
STARTCHAR l
ENCODING 108
SWIDTH 354 0
DWIDTH 3 0
BBX 4 7 -1 0
BITMAP
18
78
08
08
08
08
2E
ENDCHAR
STARTCHAR m
ENCODING 109
SWIDTH 708 0
DWIDTH 6 0
BBX 5 3 0 1
BITMAP
7EC0
2A80
B080
ENDCHAR
STARTCHAR n
ENCODING 110
SWIDTH 584 0
DWIDTH 5 0
BBX 5 5 0 -1
BITMAP
6700
2240
2240
7B00
0040
ENDCHAR
STARTCHAR o
ENCODING 111
SWIDTH 503 0
DWIDTH 4 0
BBX 4 4 0 1
BITMAP
7D
96
92
7D
ENDCHAR
STARTCHAR p
ENCODING 112
SWIDTH 509 0
DWIDTH 4 0
BBX 4 7 0 -3
BITMAP
A0
3E
23
3D
20
60
B4
ENDCHAR
STARTCHAR q
ENCODING 113
SWIDTH 505 0
DWIDTH 4 0
BBX 4 8 0 -4
BITMAP
7D
D9
BD
09
09
09
2E
01
ENDCHAR
STARTCHAR r
ENCODING 114
SWIDTH 414 0
DWIDTH 3 0
BBX 4 5 0 0
BITMAP
AE
36
20
30
B8
ENDCHAR
STARTCHAR s
ENCODING 115
SWIDTH 482 0
DWIDTH 4 0
BBX 4 6 0 -1
BITMAP
29
21
04
55
56
1D
ENDCHAR
STARTCHAR t
ENCODING 116
SWIDTH 434 0
DWIDTH 3 0
BBX 4 6 0 0
BITMAP
04
24
BC
60
65
3C
ENDCHAR
STARTCHAR u
ENCODING 117
SWIDTH 744 0
DWIDTH 6 0
BBX 6 4 0 0
BITMAP
A380
2080
25F0
1E00
ENDCHAR
STARTCHAR v
ENCODING 118
SWIDTH 600 0
DWIDTH 5 0
BBX 5 5 0 0
BITMAP
6000
3380
1500
0900
0400
ENDCHAR
STARTCHAR w
ENCODING 119
SWIDTH 745 0
DWIDTH 6 0
BBX 6 5 0 0
BITMAP
1060
F250
3680
2540
1400
ENDCHAR
STARTCHAR x
ENCODING 120
SWIDTH 548 0
DWIDTH 4 0
BBX 5 4 0 1
BITMAP
FB40
2400
1C00
6F00
ENDCHAR
STARTCHAR y
ENCODING 121
SWIDTH 659 0
DWIDTH 5 0
BBX 5 9 0 -4
BITMAP
2400
E3C0
6180
3180
1E80
0140
0100
3A00
3D00
ENDCHAR
STARTCHAR z
ENCODING 122
SWIDTH 460 0
DWIDTH 4 0
BBX 4 4 0 0
BITMAP
BC
44
10
7E
ENDCHAR
STARTCHAR braceleft
ENCODING 123
SWIDTH 460 0
DWIDTH 4 0
BBX 4 10 0 -2
BITMAP
1D
24
24
14
60
10
14
24
24
1D
ENDCHAR
STARTCHAR bar
ENCODING 124
SWIDTH 368 0
DWIDTH 3 0
BBX 1 9 1 -2
BITMAP
40
40
40
40
40
40
40
40
40
ENDCHAR
STARTCHAR braceright
ENCODING 125
SWIDTH 476 0
DWIDTH 4 0
BBX 4 9 0 -2
BITMAP
B4
28
18
09
05
05
02
06
18
ENDCHAR
STARTCHAR asciitilde
ENCODING 126
SWIDTH 733 0
DWIDTH 6 0
BBX 6 1 0 1
BITMAP
7FD0
ENDCHAR
STARTCHAR nonbreakingspace
ENCODING 160
SWIDTH 270 0
DWIDTH 2 0
BBX 1 1 0 0
BITMAP
00
ENDCHAR
STARTCHAR exclamdown
ENCODING 161
SWIDTH 247 0
DWIDTH 2 0
BBX 2 9 0 -1
BITMAP
50
00
00
50
50
50
60
A0
50
ENDCHAR
STARTCHAR cent
ENCODING 162
SWIDTH 799 0
DWIDTH 6 0
BBX 4 5 1 0
BITMAP
2E
62
94
A5
2D
ENDCHAR
STARTCHAR sterling
ENCODING 163
SWIDTH 799 0
DWIDTH 6 0
BBX 5 7 1 -1
BITMAP
2E00
2600
6000
7400
2800
1840
FB40
ENDCHAR
STARTCHAR currency
ENCODING 164
SWIDTH 732 0
DWIDTH 6 0
BBX 5 6 0 0
BITMAP
0100
6F00
5040
5140
3E40
1040
ENDCHAR
STARTCHAR yen
ENCODING 165
SWIDTH 799 0
DWIDTH 6 0
BBX 6 8 0 -2
BITMAP
B810
1DE0
0A40
0300
1FF0
07C0
0BC0
0400
ENDCHAR
STARTCHAR brokenbar
ENCODING 166
SWIDTH 341 0
DWIDTH 3 0
BBX 1 9 1 -2
BITMAP
40
40
40
00
40
40
40
40
40
ENDCHAR
STARTCHAR section
ENCODING 167
SWIDTH 546 0
DWIDTH 4 0
BBX 4 9 0 -2
BITMAP
2E
22
34
5A
62
29
05
01
2D
ENDCHAR
STARTCHAR dieresis
ENCODING 168
SWIDTH 393 0
DWIDTH 3 0
BBX 2 1 1 5
BITMAP
A0
ENDCHAR
STARTCHAR copyright
ENCODING 169
SWIDTH 1023 0
DWIDTH 8 0
BBX 8 7 0 -1
BITMAP
0BE4
2419
4782
4881
4741
2418
1BE0
ENDCHAR
STARTCHAR ordfeminine
ENCODING 170
SWIDTH 558 0
DWIDTH 4 0
BBX 4 4 0 3
BITMAP
78
98
7D
7B
ENDCHAR
STARTCHAR guillemotleft
ENCODING 171
SWIDTH 608 0
DWIDTH 5 0
BBX 5 7 0 -2
BITMAP
0040
0500
1600
7700
2540
0840
0100
ENDCHAR
STARTCHAR logicalnot
ENCODING 172
SWIDTH 616 0
DWIDTH 5 0
BBX 5 2 0 2
BITMAP
BE40
0040
ENDCHAR
STARTCHAR uni00AD
ENCODING 173
SWIDTH 436 0
DWIDTH 3 0
BBX 3 1 0 2
BITMAP
7C
ENDCHAR
STARTCHAR registered
ENCODING 174
SWIDTH 1048 0
DWIDTH 8 0
BBX 8 7 0 -2
BITMAP
0BE4
2FD5
4551
47C5
5FF5
2409
0BE4
ENDCHAR
STARTCHAR macron
ENCODING 175
SWIDTH 382 0
DWIDTH 3 0
BBX 3 1 0 6
BITMAP
78
ENDCHAR
STARTCHAR degree
ENCODING 176
SWIDTH 346 0
DWIDTH 3 0
BBX 3 2 0 6
BITMAP
74
74
ENDCHAR
STARTCHAR plusminus
ENCODING 177
SWIDTH 580 0
DWIDTH 5 0
BBX 4 3 0 1
BITMAP
04
7E
BD
ENDCHAR
STARTCHAR twosuperior
ENCODING 178
SWIDTH 365 0
DWIDTH 3 0
BBX 3 5 0 2
BITMAP
34
18
14
50
20
ENDCHAR
STARTCHAR threesuperior
ENCODING 179
SWIDTH 371 0
DWIDTH 3 0
BBX 3 4 0 3
BITMAP
A0
24
48
74
ENDCHAR
STARTCHAR acute
ENCODING 180
SWIDTH 234 0
DWIDTH 2 0
BBX 2 2 0 6
BITMAP
10
40
ENDCHAR
STARTCHAR mu
ENCODING 181
SWIDTH 634 0
DWIDTH 5 0
BBX 5 7 0 -3
BITMAP
8200
8200
9340
AEC0
9000
9000
5000
ENDCHAR
STARTCHAR paragraph
ENCODING 182
SWIDTH 707 0
DWIDTH 6 0
BBX 6 10 0 -3
BITMAP
0040
6F40
F940
B540
1540
0540
0940
0980
19E0
6400
ENDCHAR
STARTCHAR periodcentered
ENCODING 183
SWIDTH 238 0
DWIDTH 2 0
BBX 2 1 0 3
BITMAP
50
ENDCHAR
STARTCHAR cedilla
ENCODING 184
SWIDTH 332 0
DWIDTH 3 0
BBX 2 3 0 -2
BITMAP
10
20
70
ENDCHAR
STARTCHAR onesuperior
ENCODING 185
SWIDTH 336 0
DWIDTH 3 0
BBX 3 4 0 3
BITMAP
20
20
70
64
ENDCHAR
STARTCHAR ordmasculine
ENCODING 186
SWIDTH 503 0
DWIDTH 4 0
BBX 4 4 0 2
BITMAP
7D
46
92
7D
ENDCHAR
STARTCHAR guillemotright
ENCODING 187
SWIDTH 778 0
DWIDTH 6 0
BBX 6 7 0 -2
BITMAP
0400
5200
2990
0990
1200
1500
0400
ENDCHAR
STARTCHAR onequarter
ENCODING 188
SWIDTH 876 0
DWIDTH 7 0
BBX 7 8 0 -1
BITMAP
2010
2040
7100
6910
0450
1024
51F4
00B8
ENDCHAR
STARTCHAR onehalf
ENCODING 189
SWIDTH 762 0
DWIDTH 6 0
BBX 6 8 0 -1
BITMAP
2010
2040
7100
6990
0420
1050
5140
0040
ENDCHAR
STARTCHAR threequarters
ENCODING 190
SWIDTH 922 0
DWIDTH 7 0
BBX 8 8 0 -1
BITMAP
A010
2450
4840
7510
0420
0424
10F8
007D
ENDCHAR
STARTCHAR questiondown
ENCODING 191
SWIDTH 571 0
DWIDTH 5 0
BBX 5 8 0 -2
BITMAP
0C00
0000
0400
0400
2000
A740
A140
7E00
ENDCHAR
STARTCHAR Agrave
ENCODING 192
SWIDTH 784 0
DWIDTH 6 0
BBX 7 9 0 0
BITMAP
2000
0400
2E00
0700
0640
1A80
26C0
E0A0
11F4
ENDCHAR
STARTCHAR Aacute
ENCODING 193
SWIDTH 784 0
DWIDTH 6 0
BBX 7 9 0 0
BITMAP
0100
0400
2E00
0700
0640
1A80
26C0
E0A0
11F4
ENDCHAR
STARTCHAR Acircumflex
ENCODING 194
SWIDTH 784 0
DWIDTH 6 0
BBX 7 8 0 0
BITMAP
0600
2F80
0700
0640
1A80
26C0
E0A0
11F4
ENDCHAR
STARTCHAR Atilde
ENCODING 195
SWIDTH 784 0
DWIDTH 6 0
BBX 7 8 0 0
BITMAP
1F00
2E00
0700
0640
1A80
26C0
E0A0
11F4
ENDCHAR
STARTCHAR Adieresis
ENCODING 196
SWIDTH 784 0
DWIDTH 6 0
BBX 7 8 0 0
BITMAP
0A00
2E00
0700
0640
1A80
26C0
E0A0
11F4
ENDCHAR
STARTCHAR Aring
ENCODING 197
SWIDTH 784 0
DWIDTH 6 0
BBX 7 9 0 0
BITMAP
0A00
0A00
2E00
0700
0640
1A80
26C0
E0A0
11F4
ENDCHAR
STARTCHAR AE
ENCODING 198
SWIDTH 1172 0
DWIDTH 9 0
BBX 10 8 0 -1
BITMAP
001A00
03F900
006000
013100
013D40
07F590
183900
FC4000
ENDCHAR
STARTCHAR Ccedilla
ENCODING 199
SWIDTH 742 0
DWIDTH 6 0
BBX 6 9 0 -3
BITMAP
0010
2FD0
A050
D000
D010
B450
2F80
0100
0700
ENDCHAR
STARTCHAR Egrave
ENCODING 200
SWIDTH 557 0
DWIDTH 4 0
BBX 5 11 0 -2
BITMAP
5000
1000
0000
5A00
6000
3000
3C00
2400
2040
BF40
0100
ENDCHAR
STARTCHAR Eacute
ENCODING 201
SWIDTH 557 0
DWIDTH 4 0
BBX 5 11 0 -2
BITMAP
0400
0400
0000
5A00
6000
3000
3C00
2400
2040
BF40
0100
ENDCHAR
STARTCHAR Ecircumflex
ENCODING 202
SWIDTH 557 0
DWIDTH 4 0
BBX 5 11 0 -2
BITMAP
0800
1600
0000
5A00
6000
3000
3C00
2400
2040
BF40
0100
ENDCHAR
STARTCHAR Edieresis
ENCODING 203
SWIDTH 557 0
DWIDTH 4 0
BBX 5 10 0 -2
BITMAP
2500
0000
5A00
6000
3000
3C00
2400
2040
BF40
0100
ENDCHAR
STARTCHAR Igrave
ENCODING 204
SWIDTH 438 0
DWIDTH 4 0
BBX 5 11 -1 -2
BITMAP
1400
0400
3FC0
0D00
0C00
0800
0800
0800
0800
2E00
5000
ENDCHAR
STARTCHAR Iacute
ENCODING 205
SWIDTH 438 0
DWIDTH 4 0
BBX 5 11 -1 -2
BITMAP
0100
0100
3FC0
0D00
0C00
0800
0800
0800
0800
2E00
5000
ENDCHAR
STARTCHAR Icircumflex
ENCODING 206
SWIDTH 438 0
DWIDTH 4 0
BBX 5 11 -1 -2
BITMAP
0600
0140
3FC0
0D00
0C00
0800
0800
0800
0800
2E00
5000
ENDCHAR
STARTCHAR Idieresis
ENCODING 207
SWIDTH 438 0
DWIDTH 4 0
BBX 5 10 -1 -2
BITMAP
1A00
3FC0
0D00
0C00
0800
0800
0800
0800
2E00
5000
ENDCHAR
STARTCHAR Eth
ENCODING 208
SWIDTH 730 0
DWIDTH 6 0
BBX 6 7 0 -2
BITMAP
AF80
21E0
24B0
B8A0
25D0
3E40
5000
ENDCHAR
STARTCHAR Ntilde
ENCODING 209
SWIDTH 799 0
DWIDTH 6 0
BBX 7 10 0 -2
BITMAP
07C0
0000
0000
F8F4
2E10
1B90
12D0
1090
1000
F400
ENDCHAR
STARTCHAR Ograve
ENCODING 210
SWIDTH 747 0
DWIDTH 6 0
BBX 6 9 0 0
BITMAP
1400
0400
0000
2F80
A1E0
C070
C070
A0A0
2F80
ENDCHAR
STARTCHAR Oacute
ENCODING 211
SWIDTH 747 0
DWIDTH 6 0
BBX 6 9 0 0
BITMAP
0100
0400
0000
2F80
A1E0
C070
C070
A0A0
2F80
ENDCHAR
STARTCHAR Ocircumflex
ENCODING 212
SWIDTH 747 0
DWIDTH 6 0
BBX 6 8 0 0
BITMAP
0500
1240
2F80
A1E0
C070
C070
A0A0
2F80
ENDCHAR
STARTCHAR Otilde
ENCODING 213
SWIDTH 747 0
DWIDTH 6 0
BBX 6 8 0 0
BITMAP
1F40
0000
2F80
A1E0
C070
C070
A0A0
2F80
ENDCHAR
STARTCHAR Odieresis
ENCODING 214
SWIDTH 747 0
DWIDTH 6 0
BBX 6 8 0 0
BITMAP
0A00
0000
2F80
A1E0
C070
C070
A0A0
2F80
ENDCHAR
STARTCHAR multiply
ENCODING 215
SWIDTH 541 0
DWIDTH 4 0
BBX 4 5 0 0
BITMAP
01
14
14
10
40
ENDCHAR
STARTCHAR Oslash
ENCODING 216
SWIDTH 747 0
DWIDTH 6 0
BBX 6 8 0 -1
BITMAP
0010
2F80
A1E0
C170
D470
B0A0
2F80
4000
ENDCHAR
STARTCHAR Ugrave
ENCODING 217
SWIDTH 690 0
DWIDTH 6 0
BBX 6 9 0 0
BITMAP
0800
0100
0000
1900
FBF0
3080
3040
3840
1F40
ENDCHAR
STARTCHAR Uacute
ENCODING 218
SWIDTH 690 0
DWIDTH 6 0
BBX 6 8 0 0
BITMAP
0040
0040
1900
FBF0
3080
3040
3840
1F40
ENDCHAR
STARTCHAR Ucircumflex
ENCODING 219
SWIDTH 690 0
DWIDTH 6 0
BBX 6 8 0 0
BITMAP
0240
0480
1900
FBF0
3080
3040
3840
1F40
ENDCHAR
STARTCHAR Udieresis
ENCODING 220
SWIDTH 690 0
DWIDTH 6 0
BBX 6 8 0 0
BITMAP
0940
0000
1900
FBF0
3080
3040
3840
1F40
ENDCHAR
STARTCHAR Yacute
ENCODING 221
SWIDTH 796 0
DWIDTH 6 0
BBX 7 11 0 -2
BITMAP
0040
0040
0410
F83C
2810
0B40
0300
0200
0300
0F80
0040
ENDCHAR
STARTCHAR Thorn
ENCODING 222
SWIDTH 479 0
DWIDTH 4 0
BBX 4 8 0 0
BITMAP
B4
20
3E
27
3E
20
60
B4
ENDCHAR
STARTCHAR germandbls
ENCODING 223
SWIDTH 591 0
DWIDTH 5 0
BBX 5 9 0 -1
BITMAP
B400
8800
4400
9E00
8740
9180
6180
6B00
4000
ENDCHAR
STARTCHAR agrave
ENCODING 224
SWIDTH 527 0
DWIDTH 4 0
BBX 5 8 0 -1
BITMAP
8000
1000
7800
5800
0900
BE00
BA00
0340
ENDCHAR
STARTCHAR aacute
ENCODING 225
SWIDTH 527 0
DWIDTH 4 0
BBX 5 8 0 -1
BITMAP
0400
0400
7800
5800
0900
BE00
BA00
0340
ENDCHAR
STARTCHAR acircumflex
ENCODING 226
SWIDTH 527 0
DWIDTH 4 0
BBX 5 8 0 -1
BITMAP
1800
0500
7800
5800
0900
BE00
BA00
0340
ENDCHAR
STARTCHAR atilde
ENCODING 227
SWIDTH 527 0
DWIDTH 4 0
BBX 5 7 0 -1
BITMAP
3D00
7800
5800
0900
BE00
BA00
0340
ENDCHAR
STARTCHAR adieresis
ENCODING 228
SWIDTH 527 0
DWIDTH 4 0
BBX 5 7 0 -1
BITMAP
2800
7800
5800
0900
BE00
BA00
0340
ENDCHAR
STARTCHAR aring
ENCODING 229
SWIDTH 527 0
DWIDTH 4 0
BBX 5 9 0 -1
BITMAP
2800
2800
0000
7800
5800
0900
BE00
BA00
0340
ENDCHAR
STARTCHAR ae
ENCODING 230
SWIDTH 700 0
DWIDTH 6 0
BBX 6 6 0 -1
BITMAP
02C0
7490
9F80
7800
8D10
A7C0
ENDCHAR
STARTCHAR ccedilla
ENCODING 231
SWIDTH 437 0
DWIDTH 4 0
BBX 4 6 0 -1
BITMAP
7C
8C
81
7C
14
28
ENDCHAR
STARTCHAR egrave
ENCODING 232
SWIDTH 434 0
DWIDTH 3 0
BBX 4 7 0 0
BITMAP
50
10
00
7D
BC
91
7C
ENDCHAR
STARTCHAR eacute
ENCODING 233
SWIDTH 434 0
DWIDTH 3 0
BBX 4 7 0 0
BITMAP
04
04
00
7D
BC
91
7C
ENDCHAR
STARTCHAR ecircumflex
ENCODING 234
SWIDTH 434 0
DWIDTH 3 0
BBX 4 7 0 0
BITMAP
14
09
00
7D
BC
91
7C
ENDCHAR
STARTCHAR edieresis
ENCODING 235
SWIDTH 434 0
DWIDTH 3 0
BBX 4 6 0 0
BITMAP
28
00
7D
BC
91
7C
ENDCHAR
STARTCHAR igrave
ENCODING 236
SWIDTH 301 0
DWIDTH 2 0
BBX 4 7 -1 1
BITMAP
50
10
00
38
18
18
2D
ENDCHAR
STARTCHAR iacute
ENCODING 237
SWIDTH 301 0
DWIDTH 2 0
BBX 3 6 0 1
BITMAP
10
10
E0
60
60
B4
ENDCHAR
STARTCHAR icircumflex
ENCODING 238
SWIDTH 301 0
DWIDTH 2 0
BBX 3 6 0 1
BITMAP
20
58
E0
60
60
B4
ENDCHAR
STARTCHAR idieresis
ENCODING 239
SWIDTH 301 0
DWIDTH 2 0
BBX 3 5 0 1
BITMAP
A0
E0
60
60
B4
ENDCHAR
STARTCHAR eth
ENCODING 240
SWIDTH 476 0
DWIDTH 4 0
BBX 5 7 -1 -1
BITMAP
7D00
0600
0140
0F80
2580
1880
0B00
ENDCHAR
STARTCHAR ntilde
ENCODING 241
SWIDTH 584 0
DWIDTH 5 0
BBX 5 7 0 -1
BITMAP
1F40
0000
6700
2240
2240
7B00
0040
ENDCHAR
STARTCHAR ograve
ENCODING 242
SWIDTH 400 0
DWIDTH 3 0
BBX 6 7 0 1
BITMAP
0090
8010
1040
0140
6E00
8800
B800
ENDCHAR
STARTCHAR oacute
ENCODING 243
SWIDTH 400 0
DWIDTH 3 0
BBX 6 7 0 1
BITMAP
0090
0410
0440
0140
6E00
8800
B800
ENDCHAR
STARTCHAR ocircumflex
ENCODING 244
SWIDTH 400 0
DWIDTH 3 0
BBX 6 7 0 1
BITMAP
0090
1410
4940
0140
6E00
8800
B800
ENDCHAR
STARTCHAR otilde
ENCODING 245
SWIDTH 400 0
DWIDTH 3 0
BBX 6 7 0 1
BITMAP
0090
0010
3D40
0140
6E00
8800
B800
ENDCHAR
STARTCHAR odieresis
ENCODING 246
SWIDTH 400 0
DWIDTH 3 0
BBX 6 7 0 1
BITMAP
0090
0010
2840
0140
6E00
8800
B800
ENDCHAR
STARTCHAR divide
ENCODING 247
SWIDTH 592 0
DWIDTH 5 0
BBX 5 4 0 1
BITMAP
0800
0000
BF40
0800
ENDCHAR
STARTCHAR oslash
ENCODING 248
SWIDTH 396 0
DWIDTH 3 0
BBX 3 4 0 0
BITMAP
78
9C
B8
40
ENDCHAR
STARTCHAR ugrave
ENCODING 249
SWIDTH 744 0
DWIDTH 6 0
BBX 6 7 0 0
BITMAP
1400
0400
0000
A380
2080
25F0
1E00
ENDCHAR
STARTCHAR uacute
ENCODING 250
SWIDTH 744 0
DWIDTH 6 0
BBX 6 7 0 0
BITMAP
0100
0400
0000
A380
2080
25F0
1E00
ENDCHAR
STARTCHAR ucircumflex
ENCODING 251
SWIDTH 744 0
DWIDTH 6 0
BBX 6 6 0 0
BITMAP
0900
1200
A380
2080
25F0
1E00
ENDCHAR
STARTCHAR udieresis
ENCODING 252
SWIDTH 744 0
DWIDTH 6 0
BBX 6 6 0 0
BITMAP
0A00
0000
A380
2080
25F0
1E00
ENDCHAR
STARTCHAR yacute
ENCODING 253
SWIDTH 659 0
DWIDTH 5 0
BBX 5 10 0 -4
BITMAP
0100
2500
E3C0
6180
3180
1E80
0140
0100
3A00
3D00
ENDCHAR
STARTCHAR thorn
ENCODING 254
SWIDTH 514 0
DWIDTH 4 0
BBX 5 11 -1 -4
BITMAP
7400
2000
2000
1F40
1580
15C0
1F80
1400
1800
1800
3E00
ENDCHAR
STARTCHAR ydieresis
ENCODING 255
SWIDTH 659 0
DWIDTH 5 0
BBX 5 10 0 -4
BITMAP
0A00
2400
E3C0
6180
3180
1E80
0140
0100
3A00
3D00
ENDCHAR
STARTCHAR dotlessi
ENCODING 305
SWIDTH 301 0
DWIDTH 2 0
BBX 3 4 0 1
BITMAP
E0
60
60
B4
ENDCHAR
STARTCHAR OE
ENCODING 338
SWIDTH 1132 0
DWIDTH 9 0
BBX 9 9 0 -2
BITMAP
000100
2FBF00
A0B000
D03100
D03E00
B47400
2FA440
007FC0
005000
ENDCHAR
STARTCHAR oe
ENCODING 339
SWIDTH 798 0
DWIDTH 6 0
BBX 7 4 0 1
BITMAP
79E0
8BE0
9744
7AE0
ENDCHAR
STARTCHAR circumflex
ENCODING 710
SWIDTH 483 0
DWIDTH 4 0
BBX 3 2 1 5
BITMAP
60
14
ENDCHAR
STARTCHAR caron
ENCODING 711
SWIDTH 428 0
DWIDTH 3 0
BBX 3 2 0 6
BITMAP
54
20
ENDCHAR
STARTCHAR ring
ENCODING 730
SWIDTH 330 0
DWIDTH 3 0
BBX 2 2 0 7
BITMAP
70
70
ENDCHAR
STARTCHAR tilde
ENCODING 732
SWIDTH 433 0
DWIDTH 3 0
BBX 3 1 0 6
BITMAP
7C
ENDCHAR
STARTCHAR mu.dup1
ENCODING 956
SWIDTH 634 0
DWIDTH 5 0
BBX 5 7 0 -3
BITMAP
8200
8200
9340
AEC0
9000
9000
5000
ENDCHAR
STARTCHAR endash
ENCODING 8211
SWIDTH 436 0
DWIDTH 3 0
BBX 3 1 0 2
BITMAP
7C
ENDCHAR
STARTCHAR emdash
ENCODING 8212
SWIDTH 651 0
DWIDTH 5 0
BBX 4 2 1 1
BITMAP
6E
40
ENDCHAR
STARTCHAR quoteleft
ENCODING 8216
SWIDTH 287 0
DWIDTH 2 0
BBX 2 3 0 4
BITMAP
10
90
60
ENDCHAR
STARTCHAR quoteright
ENCODING 8217
SWIDTH 291 0
DWIDTH 2 0
BBX 2 3 0 3
BITMAP
60
20
10
ENDCHAR
STARTCHAR quotesinglbase
ENCODING 8218
SWIDTH 272 0
DWIDTH 2 0
BBX 2 3 0 -2
BITMAP
60
20
10
ENDCHAR
STARTCHAR quotedblleft
ENCODING 8220
SWIDTH 445 0
DWIDTH 4 0
BBX 3 3 0 4
BITMAP
14
58
68
ENDCHAR
STARTCHAR quotedblright
ENCODING 8221
SWIDTH 444 0
DWIDTH 4 0
BBX 3 3 0 4
BITMAP
6C
28
14
ENDCHAR
STARTCHAR quotedblbase
ENCODING 8222
SWIDTH 482 0
DWIDTH 4 0
BBX 4 3 0 -2
BITMAP
69
65
14
ENDCHAR
STARTCHAR bullet
ENCODING 8226
SWIDTH 351 0
DWIDTH 3 0
BBX 3 2 0 2
BITMAP
74
74
ENDCHAR
STARTCHAR guilsinglleft
ENCODING 8249
SWIDTH 465 0
DWIDTH 4 0
BBX 3 4 0 0
BITMAP
04
20
70
08
ENDCHAR
STARTCHAR guilsinglright
ENCODING 8250
SWIDTH 449 0
DWIDTH 4 0
BBX 3 5 0 -1
BITMAP
10
18
24
50
40
ENDCHAR
STARTCHAR fraction
ENCODING 8260
SWIDTH 406 0
DWIDTH 3 0
BBX 5 7 -1 0
BITMAP
0040
0100
0100
0400
1000
5000
4000
ENDCHAR
STARTCHAR foursuperior
ENCODING 8308
SWIDTH 473 0
DWIDTH 4 0
BBX 4 5 0 2
BITMAP
10
20
14
BC
2E
ENDCHAR
STARTCHAR Euro
ENCODING 8364
SWIDTH 799 0
DWIDTH 6 0
BBX 7 6 0 0
BITMAP
07E4
1D10
3500
7400
2810
0B80
ENDCHAR
STARTCHAR minus
ENCODING 8722
SWIDTH 436 0
DWIDTH 3 0
BBX 3 1 0 2
BITMAP
7C
ENDCHAR
STARTCHAR f_f
ENCODING 64256
SWIDTH 467 0
DWIDTH 4 0
BBX 5 12 0 -3
BITMAP
1D00
1740
5980
5400
BD00
5800
5800
2900
2B00
3400
3400
BC00
ENDCHAR
STARTCHAR .notdef
ENCODING -1
SWIDTH 270 0
DWIDTH 2 0
BBX 2 5 0 0
BITMAP
B0
00
00
00
B0
ENDCHAR
STARTCHAR .null
ENCODING -1
SWIDTH 0 0
DWIDTH 0 0
BBX 1 1 0 0
BITMAP
00
ENDCHAR
STARTCHAR nonmarkingreturn
ENCODING -1
SWIDTH 270 0
DWIDTH 2 0
BBX 1 1 0 0
BITMAP
00
ENDCHAR
STARTCHAR dieresis.case
ENCODING -1
SWIDTH 393 0
DWIDTH 3 0
BBX 3 1 0 6
BITMAP
58
ENDCHAR
STARTCHAR o.cmp
ENCODING -1
SWIDTH 400 0
DWIDTH 3 0
BBX 6 7 0 1
BITMAP
0090
0010
0040
0140
6E00
8800
B800
ENDCHAR
STARTCHAR n_n
ENCODING -1
SWIDTH 1024 0
DWIDTH 8 0
BBX 8 6 0 -1
BITMAP
D000
2B00
22AE
2262
7BBF
0040
ENDCHAR
STARTCHAR a_a
ENCODING -1
SWIDTH 911 0
DWIDTH 7 0
BBX 8 6 0 -1
BITMAP
01E0
7554
8AF4
7B64
BBE8
000D
ENDCHAR
STARTCHAR t_h
ENCODING -1
SWIDTH 854 0
DWIDTH 7 0
BBX 7 10 0 -1
BITMAP
1F00
0200
1600
FF40
22F4
2218
3698
1F94
1F64
00B8
ENDCHAR
STARTCHAR s_s
ENCODING -1
SWIDTH 654 0
DWIDTH 5 0
BBX 5 6 0 -1
BITMAP
2F80
1640
4100
9980
2DC0
1F80
ENDCHAR
STARTCHAR t_t
ENCODING -1
SWIDTH 569 0
DWIDTH 5 0
BBX 5 8 0 -1
BITMAP
0800
2D00
FC00
6800
6940
6740
3000
1F00
ENDCHAR
STARTCHAR e_e
ENCODING -1
SWIDTH 782 0
DWIDTH 6 0
BBX 6 5 0 0
BITMAP
76D0
9A10
E610
9290
2FE0
ENDCHAR
STARTCHAR o_o
ENCODING -1
SWIDTH 751 0
DWIDTH 6 0
BBX 8 8 0 1
BITMAP
0002
0001
0001
0005
7F74
9620
87E0
7800
ENDCHAR
STARTCHAR l_l
ENCODING -1
SWIDTH 573 0
DWIDTH 5 0
BBX 6 8 -1 -1
BITMAP
3B80
1580
1580
1580
15C0
19E0
7800
0400
ENDCHAR
STARTCHAR z_z
ENCODING -1
SWIDTH 875 0
DWIDTH 7 0
BBX 7 5 0 -1
BITMAP
0F80
7D40
1600
17DC
BFF8
ENDCHAR
STARTCHAR j_j
ENCODING -1
SWIDTH 577 0
DWIDTH 5 0
BBX 6 12 -1 -5
BITMAP
0240
0800
0380
2EC0
0A90
0250
0250
0250
A210
8950
7E40
0740
ENDCHAR
STARTCHAR f_b
ENCODING -1
SWIDTH 731 0
DWIDTH 6 0
BBX 7 11 -1 -2
BITMAP
0740
0980
0980
1BC0
6880
1880
18B8
1898
19F8
1E00
1000
ENDCHAR
STARTCHAR f_k
ENCODING -1
SWIDTH 708 0
DWIDTH 6 0
BBX 6 9 0 -1
BITMAP
0400
6E00
0A00
1800
99C0
5A00
5A10
9DD0
2F00
ENDCHAR
STARTCHAR f_h
ENCODING -1
SWIDTH 873 0
DWIDTH 7 0
BBX 8 11 -1 -2
BITMAP
0740
0580
0590
0BC0
2880
6880
18AD
1899
188B
1FD0
1000
ENDCHAR
ENDFONT
